<!-- icon666.com - MILLIONS OF FREE VECTOR ICONS --><svg viewBox="0 -22 512.00056 512" xmlns="http://www.w3.org/2000/svg"><path d="m67.503906 105.03125c20.410156 0 38.121094-11.714844 46.804688-28.769531 6.398437 6.921875 15.546875 11.269531 25.695312 11.269531 13.78125 0 24.996094-11.214844 24.996094-25 0-3.476562-.710938-6.867188-2.085938-10 1.375-3.136719 2.085938-6.523438 2.085938-10 0-13.785156-11.214844-25-24.996094-25-10.148437 0-19.296875 4.34375-25.695312 11.265625-8.683594-17.050781-26.394532-28.765625-46.804688-28.765625-28.949218 0-52.5 23.550781-52.5 52.5 0 28.945312 23.550782 52.5 52.5 52.5zm72.5-72.5c5.511719 0 10 4.484375 10 10 0 2.046875-.625 4.019531-1.800781 5.707031-1.800781 2.578125-1.800781 6.003907 0 8.585938 1.175781 1.6875 1.800781 3.660156 1.800781 5.707031 0 5.511719-4.488281 10-10 10-11.03125 0-20-8.972656-20-20s8.96875-20 20-20zm-35.851562 12.078125c-20.152344-2-38.578125-11.210937-52.296875-26.144531 4.765625-2.199219 10.0625-3.433594 15.648437-3.433594 17.957032 0 33.003906 12.691406 36.648438 29.578125zm-64.449219-17.21875c16.691406 18.804687 39.574219 30.246094 64.605469 32.300781-3.351563 17.261719-18.578125 30.339844-36.804688 30.339844-20.679687 0-37.5-16.824219-37.5-37.5 0-9.664062 3.671875-18.484375 9.699219-25.140625zm0 0"></path><path d="m129.875 452.414062-24.871094-8.289062v-129.097656h22.5c4.140625 0 7.5-3.355469 7.5-7.5v-35.332032c0-15.472656-5.308594-30.417968-15-42.40625v-74.402343c39.511719 3.578125 71.0625 35.128906 74.640625 74.644531h-14.644531v-7.5c0-4.144531-3.355469-7.5-7.5-7.5-4.140625 0-7.5 3.355469-7.5 7.5v30c0 4.140625 3.359375 7.5 7.5 7.5 4.144531 0 7.5-3.359375 7.5-7.5v-7.5h45v7.5c0 4.140625 3.359375 7.5 7.5 7.5 4.144531 0 7.5-3.359375 7.5-7.5v-30c0-4.144531-3.355469-7.5-7.5-7.5-4.140625 0-7.5 3.355469-7.5 7.5v7.5h-15.285156c-3.675782-48.125-42.445313-86.578125-90.699219-89.777344-3.199219-11.640625-13.871094-20.222656-26.511719-20.222656h-50c-15.164062 0-27.5 12.335938-27.5 27.5v82.257812c-9.695312 11.988282-14.99999975 26.933594-14.99999975 42.40625v35.335938c0 4.140625 3.35546875 7.5 7.49999975 7.5h22.5v129.09375l-24.875 8.289062c-3.929687 1.308594-6.050781 5.558594-4.742187 9.488282 1.046875 3.140625 3.972656 5.128906 7.113281 5.128906.785156 0 1.585938-.125 2.375-.386719l30-10c3.0625-1.023437 5.125-3.886719 5.125-7.117187v-134.5h7.5c4.144531 0 7.5-3.355469 7.5-7.5v-22.5h15v22.5c0 4.144531 3.359375 7.5 7.5 7.5h7.5v134.5c0 3.230468 2.066406 6.097656 5.128906 7.117187l30 10c.789063.261719 1.585938.386719 2.375.386719 3.136719 0 6.0625-1.988281 7.113282-5.128906 1.308593-3.929688-.8125-8.179688-4.742188-9.488282zm-99.871094-227.382812v-30h75v30zm12.5-90h50c6.890625 0 12.5 5.605469 12.5 12.5v32.5h-75v-32.5c0-6.894531 5.605469-12.5 12.5-12.5zm50 149.996094c4.140625 0 7.5-3.355469 7.5-7.5 0-4.140625-3.359375-7.5-7.5-7.5h-50c-4.144531 0-7.5 3.359375-7.5 7.5 0 4.144531 3.355469 7.5 7.5 7.5h2.5v15h-30v-27.832032c0-11.6875 3.902344-22.984374 11.039063-32.164062h82.921875c7.132812 9.179688 11.039062 20.476562 11.039062 32.164062v27.832032h-30v-15zm0 0"></path><path d="m504.5 215.03125c-4.140625 0-7.5 3.355469-7.5 7.5v7.5h-15.285156c-3.679688-48.125-42.445313-86.578125-90.699219-89.777344-3.199219-11.644531-13.871094-20.222656-26.515625-20.222656h-80c-15.160156 0-27.5 12.335938-27.5 27.5v29.425781c0 .332031.023438.664063.066406.992188 1.441406 10.804687 6.816406 20.855469 14.933594 28.121093v110.460938c0 4.144531 3.359375 7.5 7.5 7.5h7.5v120.0625l-24.871094 8.289062c-3.929687 1.3125-6.050781 5.558594-4.742187 9.488282 1.046875 3.140625 3.972656 5.128906 7.113281 5.128906.785156 0 1.585938-.125 2.375-.386719l30-10c3.0625-1.019531 5.125-3.886719 5.125-7.113281v-125.46875h7.5c4.144531 0 7.5-3.355469 7.5-7.5v-17.066406c4.953125.710937 10.050781.710937 15 0v17.066406c0 4.144531 3.359375 7.5 7.5 7.5h7.5v125.46875c0 3.226562 2.066406 6.09375 5.128906 7.113281l30 10c.789063.261719 1.585938.386719 2.375.386719 3.136719 0 6.0625-1.988281 7.113282-5.128906 1.308593-3.929688-.8125-8.179688-4.742188-9.488282l-24.875-8.289062v-120.0625h7.5c4.144531 0 7.5-3.355469 7.5-7.5v-110.460938c8.117188-7.265624 13.496094-17.316406 14.9375-28.121093.042969-.328125.0625-.660157.0625-.992188v-21.570312c39.515625 3.578125 71.066406 35.128906 74.644531 74.644531h-14.644531v-7.5c0-4.144531-3.355469-7.5-7.5-7.5-4.140625 0-7.5 3.355469-7.5 7.5v30c0 4.140625 3.359375 7.5 7.5 7.5 4.144531 0 7.5-3.359375 7.5-7.5v-7.5h45v7.5c0 4.140625 3.359375 7.5 7.5 7.5 4.144531 0 7.5-3.359375 7.5-7.5v-30c0-4.144531-3.355469-7.5-7.5-7.5zm-142.5-6.292969v31.261719h-75v-31.261719c8.730469-3.09375 15-11.433593 15-21.207031v-52.5h45v52.5c0 9.773438 6.273438 18.113281 15 21.207031zm-90-61.207031c0-6.894531 5.609375-12.5 12.5-12.5h2.5v52.5c0 3.34375-2.199219 6.183594-5.230469 7.144531-5.226562-4.765625-8.726562-11.257812-9.769531-18.242187zm75 161.5v-19.105469c0-2.433593-1.179688-4.714843-3.167969-6.121093s-4.535156-1.757813-6.832031-.949219c-8.039062 2.84375-16.953125 2.84375-25 0-2.292969-.808594-4.839844-.457031-6.828125.949219s-3.171875 3.6875-3.171875 6.121093v19.105469h-15v-54.03125h75v54.03125zm30-132.597656c-1.042969 6.984375-4.539062 13.476562-9.765625 18.242187-3.03125-.964843-5.234375-3.800781-5.234375-7.144531v-52.5h2.5c6.894531 0 12.5 5.605469 12.5 12.5zm0 0"></path><path d="m324.5 105c28.949219 0 52.5-23.550781 52.5-52.5s-23.550781-52.5-52.5-52.5c-28.945312 0-52.5 23.550781-52.5 52.5s23.554688 52.5 52.5 52.5zm18.6875-84.992188c-4.109375 6.132813-11.078125 9.992188-18.6875 9.992188s-14.574219-3.859375-18.6875-9.992188c5.507812-3.179687 11.886719-5.007812 18.6875-5.007812 6.804688 0 13.183594 1.832031 18.6875 5.007812zm-48.671875 10c6.960937 9.253907 18 14.992188 29.984375 14.992188s23.023438-5.738281 29.984375-14.992188c4.71875 6.269532 7.515625 14.058594 7.515625 22.492188 0 20.675781-16.820312 37.5-37.5 37.5-20.675781 0-37.5-16.824219-37.5-37.5 0-8.433594 2.800781-16.222656 7.515625-22.492188zm0 0"></path><path d="m219.5 422.027344h-47c-12.40625 0-22.496094 10.09375-22.496094 22.5v15c0 4.144531 3.355469 7.5 7.496094 7.5h77c4.144531 0 7.5-3.355469 7.5-7.5v-15c0-12.40625-10.089844-22.5-22.5-22.5zm7.5 30h-62v-7.5c0-4.136719 3.367188-7.5 7.5-7.5h47c4.136719 0 7.5 3.363281 7.5 7.5zm0 0"></path><path d="m476.5 422h-47c-12.40625 0-22.5 10.09375-22.5 22.5v15c0 4.140625 3.359375 7.5 7.5 7.5h77c4.144531 0 7.5-3.359375 7.5-7.5v-15c0-12.40625-10.09375-22.5-22.5-22.5zm7.5 30h-62v-7.5c0-4.136719 3.363281-7.5 7.5-7.5h47c4.136719 0 7.5 3.363281 7.5 7.5zm0 0"></path></svg>