<svg width="40" height="40" viewBox="0 0 40 40" fill="none" xmlns="http://www.w3.org/2000/svg">
<path d="M5 29.1V34.1667C5 34.6333 5.36667 35 5.83333 35H10.9C11.1167 35 11.3333 34.9167 11.4833 34.75L29.6833 16.5667L23.4333 10.3167L5.25 28.5C5.08333 28.6667 5 28.8667 5 29.1ZM34.5167 11.7333C34.6712 11.5791 34.7937 11.396 34.8774 11.1944C34.961 10.9928 35.0041 10.7766 35.0041 10.5583C35.0041 10.3401 34.961 10.1239 34.8774 9.92229C34.7937 9.72067 34.6712 9.53752 34.5167 9.38333L30.6167 5.48333C30.4625 5.32883 30.2793 5.20625 30.0777 5.12261C29.8761 5.03898 29.6599 4.99593 29.4417 4.99593C29.2234 4.99593 29.0072 5.03898 28.8056 5.12261C28.604 5.20625 28.4209 5.32883 28.2667 5.48333L25.2167 8.53333L31.4667 14.7833L34.5167 11.7333Z" fill="#D25B5B"/>
</svg>
