<svg width="90" height="90" viewBox="0 0 90 90" fill="none" xmlns="http://www.w3.org/2000/svg">
<g clip-path="url(#clip0_5_9898)">
<path fill-rule="evenodd" clip-rule="evenodd" d="M45.225 22.275C46.2784 23.3297 46.8701 24.7594 46.8701 26.25C46.8701 27.7406 46.2784 29.1703 45.225 30.225L30.4575 45L45.2325 59.775C46.2567 60.8364 46.823 62.2575 46.8095 63.7324C46.7959 65.2072 46.2037 66.6178 45.1603 67.6602C44.1169 68.7026 42.7058 69.2936 41.2309 69.3057C39.756 69.3178 38.3354 68.7501 37.275 67.725L18.525 48.975C17.4716 47.9203 16.88 46.4906 16.88 45C16.88 43.5094 17.4716 42.0797 18.525 41.025L37.275 22.275C37.7974 21.7523 38.4176 21.3376 39.1003 21.0547C39.783 20.7718 40.5148 20.6262 41.2538 20.6262C41.9927 20.6262 42.7245 20.7718 43.4072 21.0547C44.0899 21.3376 44.7101 21.7523 45.2325 22.275H45.225ZM67.725 22.275C68.7784 23.3297 69.3701 24.7594 69.3701 26.25C69.3701 27.7406 68.7784 29.1703 67.725 30.225L52.9575 45L67.7325 59.775C68.7567 60.8364 69.323 62.2575 69.3095 63.7324C69.2959 65.2072 68.7037 66.6178 67.6603 67.6602C66.6169 68.7026 65.2058 69.2936 63.7309 69.3057C62.256 69.3178 60.8354 68.7501 59.775 67.725L41.025 48.975C39.9716 47.9203 39.38 46.4906 39.38 45C39.38 43.5094 39.9716 42.0797 41.025 41.025L59.775 22.275C60.2974 21.7523 60.9176 21.3376 61.6003 21.0547C62.283 20.7718 63.0148 20.6262 63.7537 20.6262C64.4927 20.6262 65.2245 20.7718 65.9072 21.0547C66.5899 21.3376 67.2101 21.7523 67.7325 22.275H67.725Z" fill="#D25B5B"/>
</g>
<defs>
<clipPath id="clip0_5_9898">
<rect width="90" height="90" fill="white"/>
</clipPath>
</defs>
</svg>
