<svg width="90" height="90" viewBox="0 0 90 90" fill="none" xmlns="http://www.w3.org/2000/svg">
<g clip-path="url(#clip0_5_9902)">
<path fill-rule="evenodd" clip-rule="evenodd" d="M44.775 67.725C43.7216 66.6703 43.13 65.2406 43.13 63.75C43.13 62.2594 43.7216 60.8297 44.775 59.775L59.5425 45L44.7675 30.225C43.7434 29.1636 43.177 27.7425 43.1906 26.2676C43.2041 24.7928 43.7963 23.3822 44.8397 22.3398C45.8831 21.2974 47.2942 20.7064 48.7691 20.6943C50.244 20.6822 51.6646 21.2499 52.725 22.275L71.475 41.025C72.5284 42.0797 73.1201 43.5094 73.1201 45C73.1201 46.4906 72.5284 47.9203 71.475 48.975L52.725 67.725C52.2026 68.2477 51.5824 68.6624 50.8997 68.9453C50.217 69.2282 49.4852 69.3738 48.7463 69.3738C48.0073 69.3738 47.2755 69.2282 46.5928 68.9453C45.9101 68.6624 45.2899 68.2477 44.7675 67.725H44.775ZM22.275 67.725C21.2216 66.6703 20.63 65.2406 20.63 63.75C20.63 62.2594 21.2216 60.8297 22.275 59.775L37.0425 45L22.2675 30.225C21.2434 29.1636 20.677 27.7425 20.6906 26.2676C20.7041 24.7928 21.2963 23.3822 22.3397 22.3398C23.3831 21.2974 24.7942 20.7064 26.2691 20.6943C27.744 20.6822 29.1646 21.2499 30.225 22.275L48.975 41.025C50.0284 42.0797 50.6201 43.5094 50.6201 45C50.6201 46.4906 50.0284 47.9203 48.975 48.975L30.225 67.725C29.7026 68.2477 29.0824 68.6624 28.3997 68.9453C27.717 69.2282 26.9852 69.3738 26.2463 69.3738C25.5073 69.3738 24.7755 69.2282 24.0928 68.9453C23.4101 68.6624 22.7899 68.2477 22.2675 67.725H22.275Z" fill="#D25B5B"/>
</g>
<defs>
<clipPath id="clip0_5_9902">
<rect width="90" height="90" fill="white" transform="matrix(-1 0 0 -1 90 90)"/>
</clipPath>
</defs>
</svg>
